<svg width="24" height="24" viewBox="0 0 24 24" fill="none" xmlns="http://www.w3.org/2000/svg">
<path d="M15.1013 5.91359L14.7478 6.26714L14.8942 6.41359H15.1013V5.91359ZM9.02727 5.91359V6.41359H9.23438L9.38082 6.26714L9.02727 5.91359ZM9.74604 5.19483L10.0996 5.54838V5.54838L9.74604 5.19483ZM14.3826 5.19483L14.7361 4.84127L14.7361 4.84127L14.3826 5.19483ZM7.12256 8.09863V7.59863H6.62256V8.09863H7.12256ZM17.1226 8.09863H17.6226V7.59863H17.1226V8.09863ZM17.126 5.41359H15.1013V6.41359H17.126V5.41359ZM18.6384 6.92594C18.6384 6.093 17.959 5.41359 17.126 5.41359V6.41359C17.4067 6.41359 17.6384 6.64529 17.6384 6.92594H18.6384ZM17.126 8.43828C17.959 8.43828 18.6384 7.75887 18.6384 6.92594H17.6384C17.6384 7.20658 17.4067 7.43828 17.126 7.43828V8.43828ZM7.00258 8.43828H17.126V7.43828H7.00258V8.43828ZM5.49023 6.92594C5.49023 7.75887 6.16965 8.43828 7.00258 8.43828V7.43828C6.72193 7.43828 6.49023 7.20658 6.49023 6.92594H5.49023ZM7.00258 5.41359C6.16965 5.41359 5.49023 6.093 5.49023 6.92594H6.49023C6.49023 6.64529 6.72193 6.41359 7.00258 6.41359V5.41359ZM9.02727 5.41359H7.00258V6.41359H9.02727V5.41359ZM9.39248 4.84127L8.67372 5.56004L9.38082 6.26714L10.0996 5.54838L9.39248 4.84127ZM10.4547 4.40125C10.0574 4.40125 9.6674 4.56635 9.39248 4.84127L10.0996 5.54838C10.1891 5.45885 10.3256 5.40125 10.4547 5.40125V4.40125ZM13.6739 4.40125H10.4547V5.40125H13.6739V4.40125ZM14.7361 4.84127C14.4612 4.56635 14.0713 4.40125 13.6739 4.40125V5.40125C13.803 5.40125 13.9395 5.45885 14.029 5.54838L14.7361 4.84127ZM15.4549 5.56004L14.7361 4.84127L14.029 5.54838L14.7478 6.26714L15.4549 5.56004ZM6.62256 18.0986C6.62256 19.4748 7.74642 20.5986 9.12256 20.5986V19.5986C8.2987 19.5986 7.62256 18.9225 7.62256 18.0986H6.62256ZM6.62256 8.09863V18.0986H7.62256V8.09863H6.62256ZM17.1226 7.59863H7.12256V8.59863H17.1226V7.59863ZM17.6226 18.0986V8.09863H16.6226V18.0986H17.6226ZM15.1226 20.5986C16.4987 20.5986 17.6226 19.4748 17.6226 18.0986H16.6226C16.6226 18.9225 15.9464 19.5986 15.1226 19.5986V20.5986ZM9.12256 20.5986H15.1226V19.5986H9.12256V20.5986Z" fill="#424242"/>
<path d="M14.9004 10.7747V17.7937" stroke="#424242" stroke-linecap="round"/>
<path d="M9.55664 10.7747V17.7937" stroke="#424242" stroke-linecap="round"/>
<path d="M12.2285 10.7747V17.7937" stroke="#424242" stroke-linecap="round"/>
</svg>
